<svg width="800.01" height="800.01" version="1.1" viewBox="0 0 800.01 800.01" xmlns="http://www.w3.org/2000/svg">
  <path d="m663.61 363.27c-47.829 27.615-108.99 11.227-136.6-36.603-27.615-47.829-11.227-108.99 36.603-136.6 47.829-27.615 108.99-11.227 136.6 36.603 27.613 47.829 11.227 108.99-36.603 136.6zm36.603 210.06c-27.615 47.829-88.773 64.216-136.6 36.603-47.829-27.615-64.217-88.773-36.603-136.6 27.615-47.829 88.773-64.216 136.6-36.603 47.829 27.615 64.216 88.773 36.603 136.6zm-300.22-320c-55.228 0-100-44.772-100-100 0-55.228 44.772-100 100-100 55.229 0 100 44.772 100 100 0 55.228-44.771 100-100 100zm-46.667 146.67c0-25.773 20.893-46.667 46.667-46.667s46.667 20.893 46.667 46.667-20.893 46.667-46.667 46.667-46.667-20.893-46.667-46.667zm46.667 346.67c-55.228 0-100-44.772-100-100 0-55.229 44.772-100 100-100 55.229 0 100 44.771 100 100 0 55.228-44.771 100-100 100zm-127.02-420c-27.615 47.829-88.773 64.217-136.6 36.603-47.829-27.615-64.216-88.773-36.603-136.6 27.615-47.829 88.775-64.217 136.6-36.603 47.829 27.615 64.217 88.773 36.603 136.6zm-36.603 283.27c-47.828 27.613-108.99 11.227-136.6-36.603-27.613-47.829-11.227-108.99 36.603-136.6 47.829-27.613 108.99-11.227 136.6 36.603s11.227 108.99-36.603 136.6zm510.29-209.94c0-33.16 18.631-61.959 45.989-76.531-17.287-89.203-64.189-167.83-130.09-225.23-26.295 16.381-60.528 18.105-89.229 1.5333-28.732-16.588-44.357-47.145-43.28-78.14-40.776-14.013-84.523-21.637-130.05-21.637s-89.277 7.624-130.05 21.637c1.0773 30.995-14.548 61.552-43.28 78.14-28.701 16.572-62.936 14.848-89.228-1.5333-65.905 57.392-112.81 136.02-130.09 225.23 27.359 14.572 45.989 43.371 45.989 76.531s-18.631 61.959-45.989 76.531c17.287 89.203 64.189 167.83 130.09 225.23 26.292-16.381 60.527-18.105 89.228-1.5333 28.732 16.588 44.357 47.144 43.28 78.14 40.776 14.013 84.523 21.637 130.05 21.637s89.277-7.624 130.05-21.637c-1.0773-30.996 14.548-61.552 43.28-78.14 28.701-16.572 62.935-14.848 89.229 1.5333 65.904-57.393 112.81-136.02 130.09-225.23-27.359-14.572-45.989-43.371-45.989-76.531" fill="#303030" stroke-width="0"/>
</svg>
